<?xml version="1.0" encoding="utf-8"?>
<!-- Generator: Adobe Illustrator 26.0.0, SVG Export Plug-In . SVG Version: 6.00 Build 0)  -->
<svg version="1.1" id="Layer_1" xmlns="http://www.w3.org/2000/svg" xmlns:xlink="http://www.w3.org/1999/xlink" x="0px" y="0px"
	 viewBox="0 0 512 512" style="enable-background:new 0 0 512 512;" xml:space="preserve">
<style type="text/css">
	.st0{fill:#5560A9;}
	.st1{fill:#E52421;}
	.st2{fill:#C11718;}
	.st3{fill:#FFFFFF;}
	.st4{fill:#DBDBDB;}
	.st5{fill:#1C2141;}
</style>
<g>
</g>
<g>
</g>
<g>
</g>
<g>
</g>
<g>
</g>
<g>
</g>
<g>
</g>
<g>
</g>
<g>
</g>
<g>
</g>
<g>
</g>
<g>
</g>
<g>
</g>
<g>
</g>
<g>
	<circle class="st0" cx="256" cy="256" r="256"/>
	<path class="st1" d="M419.49,206.25h-36.04L330.21,93.25c-9.3-19.75-29.08-32.6-50.9-32.65c-0.13,0-0.26,0-0.39,0
		c-84.2,0-196.69,64.92-207.49,147.43c-31.97,7.21-55.86,35.76-55.86,69.91l0,0c0,39.59,32.1,71.69,71.69,71.69h332.24
		c39.59,0,71.69-32.1,71.69-71.69l0,0C491.18,238.35,459.08,206.25,419.49,206.25z"/>
	<path class="st2" d="M419.49,206.25h-36.04L330.21,93.25c-9.3-19.74-29.08-32.6-50.9-32.65c-0.13,0-0.26,0-0.39,0
		c-7.77,0-15.77,0.56-23.92,1.62v287.41h164.49c39.59,0,71.69-32.1,71.69-71.69C491.18,238.35,459.08,206.25,419.49,206.25z"/>
	<path class="st3" d="M315.86,118.55c-7.87-16.7-24.6-27.58-43.06-27.62c-0.11,0-0.22,0-0.33,0c-65.1,0-150.18,45.88-171.31,107.07
		h252.13L315.86,118.55z"/>
	<path class="st4" d="M315.86,118.55c-7.87-16.7-24.6-27.58-43.06-27.62c-0.11,0-0.22,0-0.33,0c-5.69,0-11.53,0.36-17.47,1.04
		v106.03h98.29L315.86,118.55z"/>
	<circle class="st5" cx="376.16" cy="327.9" r="71.07"/>
	<circle class="st3" cx="376.16" cy="327.9" r="49.33"/>
	<circle class="st5" cx="141.64" cy="327.9" r="71.07"/>
	<circle class="st3" cx="141.63" cy="327.9" r="49.33"/>
	<g>
	</g>
</g>
</svg>
